<svg width="251" height="160" viewBox="0 0 251 160" fill="none" xmlns="http://www.w3.org/2000/svg">
<mask id="mask0" mask-type="alpha" maskUnits="userSpaceOnUse" x="0" y="0" width="251" height="160">
<rect width="251" height="160" fill="white"/>
</mask>
<g mask="url(#mask0)">
<path d="M206 173C206 214.421 172.421 248 131 248C89.5786 248 56 214.421 56 173C56 131.579 89.5786 98 131 98C172.421 98 206 131.579 206 173Z" fill="#C2C2C2"/>
<path d="M18 -6.5C18 21.3904 40.6096 44 68.5 44C96.3904 44 119 21.3904 119 -6.5C119 -34.3904 96.3904 -57 68.5 -57C40.6096 -57 18 -34.3904 18 -6.5Z" fill="#075FCE"/>
<circle cx="5.00001" cy="96" r="97.668" fill="#E7E7E7" fill-opacity="0.5"/>
</g>
</svg>
