<svg width="251" height="162" viewBox="0 0 251 162" fill="none" xmlns="http://www.w3.org/2000/svg">
<mask id="mask0" mask-type="alpha" maskUnits="userSpaceOnUse" x="0" y="0" width="251" height="162">
<rect x="0.5" y="0.5" width="250" height="161" fill="white" stroke="#E5E5E5"/>
</mask>
<g mask="url(#mask0)">
<path fill-rule="evenodd" clip-rule="evenodd" d="M60 294C141.738 294 208 227.738 208 146C208 64.2619 141.738 -2 60 -2C-21.7381 -2 -88 64.2619 -88 146C-88 227.738 -21.7381 294 60 294ZM60 243.668C113.941 243.668 157.668 199.941 157.668 146C157.668 92.0594 113.941 48.332 60 48.332C6.05945 48.332 -37.668 92.0594 -37.668 146C-37.668 199.941 6.05945 243.668 60 243.668Z" fill="#E7E7E7"/>
<path fill-rule="evenodd" clip-rule="evenodd" d="M210 354C291.738 354 358 287.738 358 206C358 124.262 291.738 58 210 58C128.262 58 62 124.262 62 206C62 287.738 128.262 354 210 354ZM210 303.668C263.941 303.668 307.668 259.941 307.668 206C307.668 152.059 263.941 108.332 210 108.332C156.059 108.332 112.332 152.059 112.332 206C112.332 259.941 156.059 303.668 210 303.668Z" fill="#075FCE"/>
</g>
</svg>
